# xmcd
# Copyright (C) 1995-1998 Ti Kan
#
# Track frame offsets:
#       150
#       13844
#       26881
#       44361
#
# Disc length: 881 seconds
#
# Revision: 0
# Processed by: cddbd v1.5.2PL0 Copyright (c) Steve Scherf et al.
# Submitted via: CD-Import v1.0
#
DISCID=2e036f04
DTITLE=Pamela Cash - Aube (Single)
DYEAR=08
DGENRE=
TTITLE0=Aube
TTITLE1=Ombre
TTITLE2=Censure
TTITLE3=Aube (Extended Version)
EXTD=
EXTT0=
EXTT1=
EXTT2=
EXTT3=
PLAYORDER=
